<?xml version="1.0" encoding="UTF-8"?>
<svg width="288px" height="152px" viewBox="0 0 288 152" version="1.1" xmlns="http://www.w3.org/2000/svg" xmlns:xlink="http://www.w3.org/1999/xlink">
    <!-- Generator: Sketch 51.2 (57519) - http://www.bohemiancoding.com/sketch -->
    <title>Group</title>
    <desc>Created with Sketch.</desc>
    <defs></defs>
    <g id="Page-1" stroke="none" stroke-width="1" fill="none" fill-rule="evenodd">
        <g id="a" transform="translate(-87.000000, -92.000000)" fill="#000000">
            <g id="Group" transform="translate(87.000000, 92.000000)">
                <path d="M0.701398139,126.182924 L10.7547715,122.598 C11.6639958,125.351651 12.4043531,127.079151 12.9758656,127.780553 C14.1188905,129.235312 15.2618982,129.96268 16.4049232,129.96268 C18.041527,129.96268 18.8598166,129.001515 18.8598166,127.079155 C18.8598166,125.156795 17.7427863,123.104576 15.5086922,120.922438 C14.3396895,119.779413 12.8589749,118.441574 11.066504,116.908882 L8.923343,115.077453 C6.14371425,112.661514 3.96160853,110.284578 2.37696036,107.946572 C0.792312197,105.608567 0,103.173181 0,100.640341 C0,98.1075022 0.461099721,95.9513739 1.383313,94.171892 C2.30552627,92.39241 3.54594947,90.957156 5.10461979,89.8660867 C8.3258718,87.6060148 12.1055906,86.4759957 16.4438897,86.4759957 C20.2366542,86.4759957 23.5877451,87.9567103 26.497263,90.9181839 C29.1729804,93.645857 31.0433568,96.9060269 32.1084482,100.698791 L22.6785398,103.933016 C21.5355149,101.075454 20.6263042,99.2570324 19.9508804,98.4776972 C18.6260106,96.9450047 17.4180593,96.17867 16.32699,96.17867 C15.2359208,96.17867 14.4371142,96.5033881 13.9305464,97.1528341 C13.4239785,97.80228 13.1706984,98.6205697 13.1706984,99.6077276 C13.1706984,101.322265 15.5346463,104.153807 20.2626129,108.102438 L22.6785398,110.245599 C27.1467281,114.246187 29.9522926,117.870041 31.0953175,121.11727 C31.6148743,122.546052 31.8616601,123.974811 31.8356822,125.403592 C31.8356822,129.508091 30.3874394,132.898148 27.4909104,135.573865 C24.5943814,138.249583 21.1263919,139.587421 17.086838,139.587421 C13.0472841,139.587421 9.58578899,138.353493 6.70224889,135.885598 C3.81870879,133.417703 1.81844521,130.183511 0.701398139,126.182924 Z M34.38129,138.457391 L34.38129,87.6060261 L47.5130218,87.6060261 L47.5130218,138.457391 L34.38129,138.457391 Z M34.38129,83.1638378 L34.38129,70.8893704 L47.5130218,70.8893704 L47.5130218,83.1638378 L34.38129,83.1638378 Z M54.0668859,138.457391 L54.0668859,68.3175772 L67.1986177,61 L67.1986177,138.457391 L54.0668859,138.457391 Z M89.8562719,126.027057 L89.8562719,99.7246272 C89.8562719,97.4905331 89.1289033,96.3735028 87.6741443,96.3735028 C87.232521,96.3735028 86.7259608,96.5943111 86.1544483,97.0359344 C85.5309802,97.5295133 84.8036116,98.3218255 83.9723208,99.4128947 L83.9723208,126.533623 L84.4788861,127.235021 C84.5308418,127.286977 84.6347516,127.416864 84.7906186,127.624687 L85.1413177,128.092285 C85.5309853,128.533909 85.7842654,128.793683 85.9011657,128.871617 C86.018066,128.94955 86.1544476,129.05346 86.3103146,129.183349 C86.4661816,129.313238 86.6220463,129.404159 86.7779134,129.456115 C87.4013815,129.611982 87.8170207,129.689914 88.0248434,129.689914 C88.4404888,129.689914 88.8041731,129.482095 89.1159071,129.066449 C89.5835082,128.494937 89.830294,127.481816 89.8562719,126.027057 Z M85.1520828,91.3285342 C87.5160662,88.2631492 90.2631814,86.7304797 93.393511,86.7304797 C96.5238406,86.7304797 99.1021024,87.9644085 101.128374,90.4323032 C103.154645,92.9001979 104.167766,95.7447286 104.167766,98.9659806 L104.167766,129.009201 C104.167766,131.918719 103.193611,134.458014 101.245273,136.627164 C99.2969356,138.796314 96.8810328,139.880872 93.9974927,139.880872 C92.2569775,139.880872 90.6074095,139.439255 89.0487392,138.556009 C87.4900688,137.672762 86.1911964,136.464811 85.1520828,134.932119 L85.1520828,138.750842 L72.020351,138.750842 L72.020351,68.6110278 L85.1520828,68.6110278 L85.1520828,91.3285342 Z M106.741575,125.247726 L106.741575,103.621284 C106.741575,98.2178931 108.027459,94.003052 110.599265,90.9766338 C113.171071,87.9502156 117.10016,86.4370292 122.38665,86.4370292 C127.67314,86.4370292 131.595735,87.9437212 134.154552,90.9571505 C136.713369,93.9705798 137.992759,98.1919153 137.992759,103.621284 L137.992759,114.142256 L119.873307,114.142256 L119.873307,125.403592 C119.873307,128.261155 120.704585,129.689914 122.367167,129.689914 C124.185616,129.689914 125.094826,128.157245 125.094826,125.09186 L125.094826,119.519641 L137.992759,119.519641 L137.992759,125.247726 C137.992759,129.482114 136.460089,132.93062 133.394704,135.593349 C130.329319,138.256077 126.65351,139.587421 122.367167,139.587421 C118.080823,139.587421 114.405014,138.249583 111.339629,135.573865 C108.274244,132.898148 106.741575,129.456136 106.741575,125.247726 Z M119.873307,107.245174 L124.977927,107.245174 L124.977927,100.231193 C124.977927,97.6593865 124.127165,96.3735028 122.425617,96.3735028 C120.724068,96.3735028 119.873307,97.6593865 119.873307,100.231193 L119.873307,107.245174 Z M160.138548,97.9321653 C156.50165,97.9321653 154.683229,100.062316 154.683229,104.322682 L154.683229,138.457391 L141.62943,138.457391 L141.62943,87.6060261 L154.683229,87.6060261 L154.683229,91.7364818 C156.683523,88.4892519 159.021493,86.8656614 161.69721,86.8656614 C162.450568,86.8656614 163.632542,86.9955486 165.243168,87.255327 L165.243168,98.321831 C162.827229,98.0620526 161.125706,97.9321653 160.138548,97.9321653 Z M167.087377,138.457391 L167.087377,87.6060261 L180.219109,87.6060261 L180.219109,91.1909499 C181.466045,89.7621687 182.966243,88.619161 184.719747,87.7618923 C186.473251,86.9046236 188.27219,86.4759957 190.116616,86.4759957 C191.961043,86.4759957 193.584633,87.0474996 194.987437,88.1905245 C197.793043,90.4246186 199.195825,93.5159351 199.195825,97.4645666 L199.195825,138.457391 L186.064094,138.457391 L186.064094,99.7635938 C186.064094,97.5035218 185.336725,96.3735028 183.881966,96.3735028 C183.544254,96.3735028 183.252008,96.4384464 183.005218,96.5683356 C182.758429,96.6982248 182.570092,96.7956402 182.440203,96.8605848 C182.310314,96.9255294 182.154449,97.0359336 181.972604,97.1918006 C181.453048,97.6334239 181.115341,97.958142 180.959474,98.1659647 C180.777629,98.3997653 180.530843,98.6855172 180.219109,99.0232291 L180.219109,138.457391 L167.087377,138.457391 Z M224.381006,138.457391 L223.09511,133.196905 C222.341752,135.560888 221.107824,137.216951 219.393286,138.165142 C217.678749,139.113333 215.717452,139.587421 213.509335,139.587421 C211.301219,139.587421 209.495786,139.223737 208.092983,138.496358 C206.69018,137.794956 205.599127,136.820802 204.819792,135.573865 C203.261121,133.157926 202.481798,130.339373 202.481798,127.118121 C202.481798,122.000487 203.910558,117.922027 206.76812,114.88262 C208.638524,112.882327 210.560855,111.349657 212.535171,110.284566 C215.366756,108.777851 218.419106,107.349092 221.692314,105.998244 L221.692314,101.711922 C221.692314,99.9194511 221.471505,98.5816125 221.029882,97.6983659 C220.588259,96.8151194 219.919339,96.3735028 219.023104,96.3735028 C218.126869,96.3735028 217.451455,96.5228731 216.996843,96.8216183 C216.54223,97.1203634 216.224007,97.5684744 216.042162,98.1659647 C215.756406,99.1011669 215.61353,100.283141 215.61353,101.711922 L215.61353,104.595448 L202.871463,104.595448 C202.871463,98.7504339 204.339189,94.2628296 207.274685,91.1325 C210.210181,88.0021705 214.470483,86.4370292 220.055718,86.4370292 C223.952394,86.4370292 227.368428,87.8528001 230.303924,90.6843846 C233.23942,93.515969 234.707146,96.8800486 234.707146,100.776724 L234.707146,124.935994 C234.707146,129.118426 235.265661,133.625513 236.382708,138.457391 L224.381006,138.457391 Z M215.262831,125.910158 C215.262831,128.430008 216.146064,129.689914 217.912557,129.689914 C218.899715,129.689914 219.821914,129.209332 220.679183,128.248152 C220.912983,127.988373 221.263679,127.559745 221.73128,126.962255 L221.73128,114.453988 C217.418959,117.935019 215.262831,121.753704 215.262831,125.910158 Z M253.774576,123.72803 C253.306975,123.72803 251.904193,123.533199 249.566187,123.143532 C248.968697,124.312535 248.669956,125.013926 248.669956,125.247726 C248.669956,126.364773 250.280558,127.235018 253.50181,127.858486 C254.930591,128.118264 256.508721,128.391028 258.236248,128.676784 C259.963774,128.96254 261.697769,129.332719 263.438284,129.787331 C265.178799,130.241943 266.763424,130.793964 268.192205,131.44341 C269.620986,132.092856 270.783477,133.002066 271.679712,134.171069 C272.575948,135.340072 273.024059,136.853258 273.024059,138.710674 C273.024059,140.568089 272.705835,142.308578 272.069378,143.932193 C271.432921,145.555808 270.588654,146.854681 269.536551,147.82885 C268.484449,148.803019 267.179082,149.588836 265.620412,150.186327 C262.918716,151.22544 259.541648,151.744989 255.489105,151.744989 C242.993765,151.744989 236.746188,148.692639 236.746188,142.587847 C236.746188,140.795376 237.23976,139.009426 238.226918,137.229944 C239.214075,135.450462 240.499959,133.989231 242.084607,132.846206 C239.0452,131.287536 237.525519,129.936708 237.525519,128.793683 C237.525519,127.312947 239.25302,124.377495 242.708072,119.98724 C240.058333,115.155362 238.733483,110.297579 238.733483,105.413745 C238.733483,100.296111 239.915457,95.9448885 242.27944,92.3599468 C243.474421,90.5414981 245.091517,89.0997496 247.130777,88.0346582 C249.170038,86.9695669 251.527491,86.4370292 254.203208,86.4370292 C258.203796,86.4370292 261.21718,87.5150933 263.243451,89.6712539 C265.139833,87.5150933 268.322071,86.4370292 272.790259,86.4370292 L274.426855,86.4370292 L273.335791,95.8279709 C270.763985,95.8279709 268.906597,96.3994748 267.763572,97.5424997 C268.854642,99.4908376 269.400168,102.030133 269.400168,105.160463 C269.400168,108.290792 269.055967,110.895032 268.367554,112.973259 C267.679142,115.051486 266.691998,116.895885 265.406095,118.506511 C264.120192,120.117137 262.470624,121.390032 260.457342,122.325234 C258.444059,123.260436 256.216493,123.72803 253.774576,123.72803 Z M253.891476,113.830523 C256.021659,113.830523 257.086734,110.778173 257.086734,104.673381 C257.086734,98.5685887 256.086602,95.5162384 254.086309,95.5162384 C253.021217,95.5162384 252.28086,96.0357874 251.865215,97.0749009 C251.267724,98.5036821 250.955995,100.00388 250.930017,101.575539 C250.904039,103.147198 250.891051,104.387621 250.891051,105.296846 C250.891051,110.985992 251.891182,113.830523 253.891476,113.830523 Z M260.476825,139.899154 C260.476825,137.119525 256.930903,135.612833 249.838953,135.379033 L248.903756,135.379033 C247.734753,137.223459 247.150261,138.84705 247.150261,140.249853 C247.150261,141.782546 250.033757,142.54888 255.800838,142.54888 C257.645264,142.54888 258.879193,142.308589 259.502661,141.827999 C260.126129,141.347409 260.450847,140.704467 260.476825,139.899154 Z M274.868268,138.457391 L274.868268,68.3175772 L288,68.3175772 L288,138.457391 L274.868268,138.457391 Z" id="silbernagl"></path>
                <path d="M3.70115071,57.8449334 L13.7509775,54.2612742 C14.6598811,57.0139537 15.3999773,58.7408447 15.9712881,59.4419989 C17.1139098,60.8962447 18.2565143,61.6233567 19.399136,61.6233567 C21.0351625,61.6233567 21.8531635,60.6625301 21.8531635,58.7408482 C21.8531635,56.8191663 20.7365272,54.7676717 18.5032212,52.5863031 C17.3346308,51.4436814 15.8544386,50.1063147 14.0626001,48.5741629 L11.9201951,46.7433805 C9.14154694,44.3282938 6.96021099,41.9521957 5.37612184,39.615015 C3.79203269,37.2778343 3,34.8433076 3,32.3113618 C3,29.779416 3.46093706,27.6240484 4.38282501,25.8451941 C5.30471295,24.0663399 6.54469857,22.6315922 8.10281904,21.5409079 C11.3229347,19.2816332 15.1013202,18.1520128 19.4380888,18.1520128 C23.2295153,18.1520128 26.5794241,19.632205 29.4879156,22.5926339 C32.1626891,25.3193447 34.0324056,28.5783645 35.0971213,32.369791 L25.6705396,35.6028748 C24.5279179,32.7463206 23.6190279,30.9285407 22.9438424,30.1494804 C21.61944,28.6173286 20.4119147,27.8512642 19.3212304,27.8512642 C18.230546,27.8512642 17.4320213,28.1758678 16.9256321,28.8250847 C16.419243,29.4743015 16.1660522,30.2923025 16.1660522,31.2791121 C16.1660522,32.9930447 18.5291661,35.8235877 23.2554649,39.7708263 L25.6705396,41.9132312 C30.1371516,45.9124071 32.9417264,49.5349828 34.084348,52.7810672 C34.6037215,54.2093443 34.8504202,55.6375999 34.8244516,57.065877 C34.8244516,61.1689276 33.3767197,64.5577888 30.4812125,67.2325623 C27.5857052,69.9073358 24.1189392,71.2447025 20.0808103,71.2447025 C16.0426814,71.2447025 12.5824074,70.0112089 9.69988454,67.5441848 C6.81736166,65.0771608 4.81780371,61.8441093 3.70115071,57.8449334 Z M37.0668873,56.9100658 L37.0668873,35.2912523 C37.0668873,29.889768 38.3523174,25.6764137 40.9232162,22.6510631 C43.494115,19.6257126 47.4218181,18.11306 52.7064434,18.11306 C57.9910687,18.11306 61.9122797,19.6192205 64.4701941,22.6315867 C67.0281086,25.643953 68.3070466,29.8637993 68.3070466,35.2912523 L68.3070466,45.8085129 L50.1939867,45.8085129 L50.1939867,57.065877 C50.1939867,59.9224313 51.0249718,61.3506869 52.686967,61.3506869 C54.5047742,61.3506869 55.4136642,59.8185581 55.4136642,56.7542545 L55.4136642,51.1840017 L68.3070466,51.1840017 L68.3070466,56.9100658 C68.3070466,61.1429597 66.7749178,64.5902496 63.7106142,67.2520387 C60.6463106,69.9138279 56.9717983,71.2447025 52.686967,71.2447025 C48.4021357,71.2447025 44.7276233,69.9073358 41.6633197,67.2325623 C38.5990161,64.5577888 37.0668873,61.1169911 37.0668873,56.9100658 Z M50.1939867,38.9138643 L55.2968057,38.9138643 L55.2968057,31.9023572 C55.2968057,29.3314584 54.4463444,28.0460283 52.7453962,28.0460283 C51.044448,28.0460283 50.1939867,29.3314584 50.1939867,31.9023572 L50.1939867,38.9138643 Z M91.3892395,57.6891221 L91.3892395,31.3959706 C91.3892395,29.1626646 90.6621275,28.0460283 89.2078818,28.0460283 C88.7664143,28.0460283 88.2600327,28.2667587 87.6887219,28.7082262 C87.0654737,29.201631 86.3383617,29.9936637 85.5073641,31.084348 L85.5073641,58.1955087 L86.0137508,58.8966595 C86.0656881,58.9485968 86.1695613,59.0784382 86.3253733,59.2861876 L86.6759487,59.7536214 C87.0654788,60.1950889 87.3186696,60.4547717 87.4355286,60.5326778 C87.5523876,60.6105838 87.6887211,60.7144569 87.8445332,60.8443003 C88.0003452,60.9741437 88.1561549,61.0650327 88.311967,61.11697 C88.9352152,61.2727821 89.3507077,61.3506869 89.5584571,61.3506869 C89.9739559,61.3506869 90.3375119,61.1429407 90.649136,60.7274419 C91.1165721,60.156131 91.3632708,59.1433679 91.3892395,57.6891221 Z M85.1327939,22.7094924 C87.4959433,19.6451888 90.2420894,18.11306 93.3713147,18.11306 C96.50054,18.11306 99.0778923,19.3465535 101.103449,21.8135776 C103.129006,24.2806017 104.141769,27.1241289 104.141769,30.3442445 L104.141769,60.3768665 C104.141769,63.2853581 103.167958,65.8237579 101.220307,67.9921422 C99.2726568,70.1605266 96.8576063,71.2447025 93.9750834,71.2447025 C92.2351822,71.2447025 90.5861961,70.8032416 89.0280756,69.9203067 C87.4699551,69.0373718 86.1715409,67.8298465 85.1327939,66.2976947 L85.1327939,70.1150708 L72.0056945,70.1150708 L72.0056945,0 L85.1327939,0 L85.1327939,22.7094924 Z M129.77989,70.1150708 L128.494447,64.8564405 C127.741355,67.2195899 126.507861,68.875068 124.793929,69.8229246 C123.079996,70.7707813 121.119391,71.2447025 118.912054,71.2447025 C116.704716,71.2447025 114.89992,70.8811465 113.497612,70.1540236 C112.095304,69.4528694 111.004636,68.4790587 110.225575,67.2325623 C108.667455,64.8174756 107.888406,61.9999166 107.888406,58.779801 C107.888406,53.6639721 109.316662,49.5869514 112.173216,46.5486164 C114.042961,44.5490285 115.964614,43.0168997 117.938233,41.952184 C120.768819,40.4460009 123.820092,39.0177452 127.092145,37.6673741 L127.092145,33.3825643 C127.092145,31.5907257 126.871415,30.253359 126.429947,29.3704241 C125.98848,28.4874892 125.319796,28.0460283 124.423877,28.0460283 C123.527958,28.0460283 122.852783,28.195346 122.398331,28.4939857 C121.943879,28.7926255 121.625767,29.2405784 121.443987,29.8378579 C121.158331,30.7727302 121.015506,31.9542872 121.015506,33.3825643 L121.015506,36.2650727 L108.277934,36.2650727 C108.277934,30.4221209 109.745143,25.9360997 112.679603,22.8068744 C115.614063,19.6776491 119.872862,18.11306 125.456127,18.11306 C129.351428,18.11306 132.766258,19.5283315 135.700718,22.358917 C138.635178,25.1895025 140.102386,28.5523955 140.102386,32.4476966 L140.102386,56.5984432 C140.102386,60.7793999 140.660704,65.2848973 141.777357,70.1150708 L129.77989,70.1150708 Z M120.66493,57.5722637 C120.66493,60.0912251 121.547852,61.3506869 123.313722,61.3506869 C124.300532,61.3506869 125.222406,60.8702737 126.079372,59.9094327 C126.31309,59.649746 126.663662,59.2212692 127.131098,58.6239897 L127.131098,46.1201354 C122.820298,49.5999378 120.66493,53.4172757 120.66493,57.5722637 Z M143.162831,57.8449334 L153.212658,54.2612742 C154.121561,57.0139537 154.861658,58.7408447 155.432968,59.4419989 C156.57559,60.8962447 157.718195,61.6233567 158.860816,61.6233567 C160.496843,61.6233567 161.314844,60.6625301 161.314844,58.7408482 C161.314844,56.8191663 160.198207,54.7676717 157.964901,52.5863031 C156.796311,51.4436814 155.316119,50.1063147 153.52428,48.5741629 L151.381875,46.7433805 C148.603227,44.3282938 146.421891,41.9521957 144.837802,39.615015 C143.253713,37.2778343 142.46168,34.8433076 142.46168,32.3113618 C142.46168,29.779416 142.922617,27.6240484 143.844505,25.8451941 C144.766393,24.0663399 146.006379,22.6315922 147.564499,21.5409079 C150.784615,19.2816332 154.563,18.1520128 158.899769,18.1520128 C162.691196,18.1520128 166.041104,19.632205 168.949596,22.5926339 C171.624369,25.3193447 173.494086,28.5783645 174.558802,32.369791 L165.13222,35.6028748 C163.989598,32.7463206 163.080708,30.9285407 162.405523,30.1494804 C161.08112,28.6173286 159.873595,27.8512642 158.782911,27.8512642 C157.692226,27.8512642 156.893702,28.1758678 156.387312,28.8250847 C155.880923,29.4743015 155.627732,30.2923025 155.627732,31.2791121 C155.627732,32.9930447 157.990846,35.8235877 162.717145,39.7708263 L165.13222,41.9132312 C169.598832,45.9124071 172.403407,49.5349828 173.546028,52.7810672 C174.065402,54.2093443 174.312101,55.6375999 174.286132,57.065877 C174.286132,61.1689276 172.8384,64.5577888 169.942893,67.2325623 C167.047386,69.9073358 163.580619,71.2447025 159.542491,71.2447025 C155.504362,71.2447025 152.044088,70.0112089 149.161565,67.5441848 C146.279042,65.0771608 144.279484,61.8441093 143.162831,57.8449334 Z M178.047727,52.6642087 L178.047727,28.0460283 L174.308257,28.0460283 L174.308257,19.2816445 L178.047727,19.2816445 L178.047727,2.57088593 L191.174827,2.57088593 L191.174827,19.2816445 L197.485183,19.2816445 L197.485183,28.0460283 L191.174827,28.0460283 L191.174827,55.8193869 C191.174827,57.2216953 191.43451,58.2669188 191.953883,58.9550887 C192.473257,59.6432586 193.440575,59.9873383 194.855868,59.9873383 C196.271161,59.9873383 197.498162,59.9094335 198.536909,59.7536214 L198.536909,69.9203067 C196.822977,70.4396802 194.628657,70.699363 191.953883,70.699363 C189.27911,70.699363 187.324996,70.517585 186.091484,70.1540236 C184.857972,69.7904622 183.819241,69.3035568 182.975259,68.693293 C182.131277,68.0830291 181.404165,67.3104726 180.793901,66.3756003 C180.183637,65.4407281 179.696732,64.4799015 179.33317,63.4930919 C179.021546,62.5322509 178.761863,61.4026305 178.554114,60.1041968 C178.24249,57.9487968 178.073696,55.4688256 178.047727,52.6642087 Z M201.285732,70.1150708 L201.285732,19.2816445 L214.412831,19.2816445 L214.412831,70.1150708 L201.285732,70.1150708 Z M201.285732,14.8410233 L201.285732,2.57088593 L214.412831,2.57088593 L214.412831,14.8410233 L201.285732,14.8410233 Z M240.33858,70.1150708 L239.053137,64.8564405 C238.300045,67.2195899 237.066551,68.875068 235.352619,69.8229246 C233.638686,70.7707813 231.678081,71.2447025 229.470744,71.2447025 C227.263406,71.2447025 225.45861,70.8811465 224.056302,70.1540236 C222.653994,69.4528694 221.563326,68.4790587 220.784265,67.2325623 C219.226145,64.8174756 218.447096,61.9999166 218.447096,58.779801 C218.447096,53.6639721 219.875352,49.5869514 222.731906,46.5486164 C224.601651,44.5490285 226.523304,43.0168997 228.496923,41.952184 C231.327509,40.4460009 234.378782,39.0177452 237.650835,37.6673741 L237.650835,33.3825643 C237.650835,31.5907257 237.430105,30.253359 236.988637,29.3704241 C236.54717,28.4874892 235.878486,28.0460283 234.982567,28.0460283 C234.086648,28.0460283 233.411472,28.195346 232.957021,28.4939857 C232.502569,28.7926255 232.184457,29.2405784 232.002677,29.8378579 C231.717021,30.7727302 231.574196,31.9542872 231.574196,33.3825643 L231.574196,36.2650727 L218.836624,36.2650727 C218.836624,30.4221209 220.303833,25.9360997 223.238293,22.8068744 C226.172753,19.6776491 230.431552,18.11306 236.014817,18.11306 C239.910118,18.11306 243.324947,19.5283315 246.259408,22.358917 C249.193868,25.1895025 250.661076,28.5523955 250.661076,32.4476966 L250.661076,56.5984432 C250.661076,60.7793999 251.219394,65.2848973 252.336047,70.1150708 L240.33858,70.1150708 Z M231.22362,57.5722637 C231.22362,60.0912251 232.106542,61.3506869 233.872412,61.3506869 C234.859222,61.3506869 235.781096,60.8702737 236.638062,59.9094327 C236.87178,59.649746 237.222352,59.2212692 237.689788,58.6239897 L237.689788,46.1201354 C233.378988,49.5999378 231.22362,53.4172757 231.22362,57.5722637 Z M255.902879,70.1150708 L255.902879,19.2816445 L269.029978,19.2816445 L269.029978,22.8653036 C270.276474,21.4370265 271.776143,20.294422 273.529028,19.4374557 C275.281914,18.5804895 277.080218,18.1520128 278.923994,18.1520128 C280.76777,18.1520128 282.390787,18.723315 283.793096,19.8659367 C286.597713,22.0992427 288,25.1894687 288,29.1367072 L288,70.1150708 L274.872901,70.1150708 L274.872901,31.4349234 C274.872901,29.1756487 274.145789,28.0460283 272.691543,28.0460283 C272.35395,28.0460283 272.061807,28.110949 271.815104,28.2407924 C271.568402,28.3706358 271.380132,28.4680168 271.250289,28.5329385 C271.120445,28.5978602 270.964636,28.7082254 270.782855,28.8640375 C270.263481,29.3055049 269.925894,29.6301085 269.770082,29.8378579 C269.588301,30.071576 269.341602,30.3572271 269.029978,30.6948199 L269.029978,70.1150708 L255.902879,70.1150708 Z" id="sebastian"></path>
            </g>
        </g>
    </g>
</svg>